<svg width="32" height="32" viewBox="0 0 32 32"  xmlns="http://www.w3.org/2000/svg">
<path d="M16 29.0001C18.5712 29.0001 21.0846 28.2377 23.2224 26.8092C25.3602 25.3808 27.0265 23.3504 28.0104 20.975C28.9944 18.5996 29.2518 15.9857 28.7502 13.4639C28.2486 10.9422 27.0105 8.62582 25.1924 6.80773C23.3743 4.98965 21.0579 3.75152 18.5362 3.24991C16.0144 2.74831 13.4006 3.00575 11.0251 3.98969C8.64967 4.97363 6.61935 6.63987 5.19089 8.77771C3.76243 10.9155 3 13.429 3 16.0001C3.00363 19.4468 4.37444 22.7513 6.81163 25.1885C9.24881 27.6257 12.5533 28.9965 16 29.0001ZM16 5.00012C18.1756 5.00012 20.3023 5.64526 22.1113 6.85396C23.9202 8.06265 25.3301 9.78062 26.1627 11.7906C26.9952 13.8006 27.2131 16.0123 26.7886 18.1461C26.3642 20.2799 25.3165 22.2399 23.7782 23.7783C22.2398 25.3167 20.2798 26.3643 18.146 26.7888C16.0122 27.2132 13.8005 26.9954 11.7905 26.1628C9.78049 25.3302 8.06253 23.9203 6.85383 22.1114C5.64513 20.3025 5 18.1757 5 16.0001C5.0033 13.0838 6.16329 10.2878 8.22548 8.2256C10.2877 6.16342 13.0836 5.00343 16 5.00012ZM11.2925 17.7076C11.1996 17.6147 11.1259 17.5044 11.0756 17.383C11.0253 17.2616 10.9994 17.1315 10.9994 17.0001C10.9994 16.8687 11.0253 16.7386 11.0756 16.6172C11.1259 16.4958 11.1996 16.3855 11.2925 16.2926C11.3854 16.1997 11.4957 16.126 11.6171 16.0757C11.7385 16.0254 11.8686 15.9996 12 15.9996C12.1314 15.9996 12.2615 16.0254 12.3829 16.0757C12.5043 16.126 12.6146 16.1997 12.7075 16.2926L15 18.5864L15 11.0001C15 10.7349 15.1054 10.4805 15.2929 10.293C15.4804 10.1055 15.7348 10.0001 16 10.0001C16.2652 10.0001 16.5196 10.1055 16.7071 10.293C16.8946 10.4805 17 10.7349 17 11.0001L17 18.5864L19.2925 16.2926C19.4801 16.105 19.7346 15.9996 20 15.9996C20.2654 15.9996 20.5199 16.105 20.7075 16.2926C20.8951 16.4803 21.0006 16.7348 21.0006 17.0001C21.0006 17.2655 20.8951 17.52 20.7075 17.7076L16.7075 21.7076C16.6146 21.8006 16.5043 21.8744 16.3829 21.9247C16.2615 21.975 16.1314 22.0009 16 22.0009C15.8686 22.0009 15.7385 21.975 15.6171 21.9247C15.4957 21.8744 15.3854 21.8006 15.2925 21.7076L11.2925 17.7076Z"  />
</svg>
