<svg width="24" height="23" viewBox="0 0 24 23" fill="none" xmlns="http://www.w3.org/2000/svg">
<g clip-path="url(#clip0_9_10574)">
<path d="M19.5291 6.79939C19.7583 6.0907 19.8318 5.34417 19.745 4.60689C19.6582 3.8696 19.413 3.15755 19.0247 2.51564C18.9588 2.40635 18.8641 2.3156 18.7501 2.25252C18.636 2.18943 18.5067 2.15623 18.375 2.15626C17.5014 2.15451 16.6395 2.34858 15.8582 2.72298C15.0768 3.09738 14.3977 3.64172 13.875 4.31251H11.625C11.1023 3.64172 10.4232 3.09738 9.64182 2.72298C8.86047 2.34858 7.99857 2.15451 7.125 2.15626C6.99332 2.15623 6.86395 2.18943 6.7499 2.25252C6.63586 2.3156 6.54115 2.40635 6.47531 2.51564C6.08704 3.15755 5.84177 3.8696 5.75497 4.60689C5.66816 5.34417 5.74169 6.0907 5.97094 6.79939C5.50756 7.57448 5.25934 8.45051 5.25 9.34376V10.0625C5.25158 11.2786 5.71225 12.4532 6.54696 13.3692C7.38166 14.2852 8.53402 14.8808 9.79125 15.0461C9.27807 15.6755 8.99952 16.4513 9 17.25V17.9688H6.75C6.15326 17.9688 5.58097 17.7416 5.15901 17.3372C4.73705 16.9328 4.5 16.3844 4.5 15.8125C4.5 15.3406 4.403 14.8733 4.21455 14.4372C4.02609 14.0012 3.74987 13.6051 3.40165 13.2713C3.05343 12.9376 2.64003 12.6729 2.18506 12.4923C1.73009 12.3117 1.24246 12.2188 0.75 12.2188C0.551088 12.2188 0.360322 12.2945 0.21967 12.4293C0.0790176 12.5641 0 12.7469 0 12.9375C0 13.1281 0.0790176 13.311 0.21967 13.4457C0.360322 13.5805 0.551088 13.6563 0.75 13.6563C1.34674 13.6563 1.91903 13.8834 2.34099 14.2878C2.76295 14.6922 3 15.2406 3 15.8125C3 16.7656 3.39509 17.6797 4.09835 18.3537C4.80161 19.0276 5.75544 19.4063 6.75 19.4063H9V20.8438C9 21.0344 9.07902 21.2172 9.21967 21.352C9.36032 21.4868 9.55109 21.5625 9.75 21.5625C9.94891 21.5625 10.1397 21.4868 10.2803 21.352C10.421 21.2172 10.5 21.0344 10.5 20.8438V17.25C10.5 16.6781 10.7371 16.1297 11.159 15.7253C11.581 15.3209 12.1533 15.0938 12.75 15.0938C13.3467 15.0938 13.919 15.3209 14.341 15.7253C14.7629 16.1297 15 16.6781 15 17.25V20.8438C15 21.0344 15.079 21.2172 15.2197 21.352C15.3603 21.4868 15.5511 21.5625 15.75 21.5625C15.9489 21.5625 16.1397 21.4868 16.2803 21.352C16.421 21.2172 16.5 21.0344 16.5 20.8438V17.25C16.5005 16.4513 16.2219 15.6755 15.7087 15.0461C16.966 14.8808 18.1183 14.2852 18.953 13.3692C19.7877 12.4532 20.2484 11.2786 20.25 10.0625V9.34376C20.2407 8.45051 19.9924 7.57448 19.5291 6.79939ZM18.75 10.0625C18.75 11.0156 18.3549 11.9297 17.6516 12.6037C16.9484 13.2776 15.9946 13.6563 15 13.6563H10.5C9.50544 13.6563 8.55161 13.2776 7.84835 12.6037C7.14509 11.9297 6.75 11.0156 6.75 10.0625V9.34376C6.7592 8.62503 6.98373 7.92398 7.39688 7.32407C7.47389 7.22679 7.52377 7.11231 7.54182 6.99143C7.55986 6.87054 7.54547 6.74725 7.5 6.63318C7.30465 6.15035 7.21063 5.63533 7.22334 5.11763C7.23605 4.59992 7.35523 4.08971 7.57406 3.61622C8.18786 3.6795 8.77892 3.87436 9.30344 4.18635C9.82796 4.49833 10.2725 4.91945 10.6041 5.41849C10.6716 5.51975 10.7646 5.60315 10.8745 5.66107C10.9844 5.71898 11.1077 5.74956 11.2331 5.75001H14.2659C14.3918 5.75002 14.5157 5.71965 14.6261 5.66171C14.7366 5.60378 14.83 5.52013 14.8978 5.41849C15.2293 4.91941 15.6738 4.49826 16.1984 4.18626C16.7229 3.87427 17.314 3.67944 17.9278 3.61622C18.1463 4.08983 18.2652 4.6001 18.2776 5.11781C18.29 5.63551 18.1956 6.15047 18 6.63318C17.9547 6.74616 17.9395 6.8682 17.9559 6.98823C17.9722 7.10825 18.0196 7.22246 18.0938 7.32048C18.511 7.92039 18.7388 8.62289 18.75 9.34376V10.0625Z" fill="#260C0A"/>
</g>
<defs>
<clipPath id="clip0_9_10574">
<rect width="24" height="23" fill="white"/>
</clipPath>
</defs>
</svg>
